<svg xmlns="http://www.w3.org/2000/svg" height="1214" width="105" preserveAspectRatio="none" xmlns:xlink="http://www.w3.org/1999/xlink" viewBox="0 0 105 1214"><path d="M25 956h24v24H25z" fill="none"/><path d="M29 962h-2v14c0 1.1.9 2 2 2h14v-2H29v-14zm16-4H33c-1.1 0-2 .9-2 2v12c0 1.1.9 2 2 2h12c1.1 0 2-.9 2-2v-12c0-1.1-.9-2-2-2zm-1 9h-4v4h-2v-4h-4v-2h4v-4h2v4h4v2z" fill="#fff"/><g transform="translate(50 881)"><symbol id="a" viewBox="0 -24 24 24"><path d="M19-13h-6v-6h-2v6H5v2h6v6h2v-6h6v-2z"/><path fill="none" d="M24-24H0V0h24z"/></symbol><use xlink:href="#a" transform="scale(1 -1)" height="24" width="24" y="-24" overflow="visible"/></g><g transform="translate(69 614)"><title>Slice 1</title><g sketch:type="MSShapeGroup" xmlns:sketch="http://www.bohemiancoding.com/sketch/ns" fill-rule="evenodd" fill="none"><path d="M-686-1781H714v3600H-686z"/><path d="M19 13h-6v6h-2v-6H5v-2h6V5h2v6h6v2z" fill="#fff"/><path d="M0 0h24v24H0z"/></g></g><path d="M45.54 886.23l-1.39-1.68c-.27-.34-.68-.55-1.15-.55H31c-.47 0-.88.21-1.16.55l-1.38 1.68c-.29.34-.46.79-.46 1.27V900c0 1.1.9 2 2 2h14c1.1 0 2-.9 2-2v-12.5c0-.48-.17-.93-.46-1.27zM37 898.5l-5.5-5.5H35v-2h4v2h3.5l-5.5 5.5zM30.12 886l.81-1h12l.94 1H30.12z"/><path d="M25 881h24v24H25z" fill="none"/><path d="M20.54 1007.23l-1.39-1.68c-.27-.34-.68-.55-1.15-.55H6c-.47 0-.88.21-1.16.55l-1.38 1.68c-.29.34-.46.79-.46 1.27v12.5c0 1.1.9 2 2 2h14c1.1 0 2-.9 2-2v-12.5c0-.48-.17-.93-.46-1.27zM12 1019.5l-5.5-5.5H10v-2h4v2h3.5l-5.5 5.5zM5.12 1007l.81-1h12l.94 1H5.12z" fill="#fff"/><path d="M0 1002h24v24H0z" fill="none"/><path fill="#231F20" d="M7 941l5 5 5-5z"/><g transform="translate(94 625)"><title>Imported EPS</title><path sketch:type="MSShapeGroup" d="M0 0l5 5 5-5H0" fill="#fff" xmlns:sketch="http://www.bohemiancoding.com/sketch/ns" fill-rule="evenodd"/></g><path d="M90.41 972.09l-4.58-4.59 4.58-4.59L89 961.5l-6 6 6 6z"/><path d="M75 955.5h24v24H75z" fill="none"/><path d="M15.41 776.09l-4.58-4.59 4.58-4.59L14 765.5l-6 6 6 6z" fill="#fff"/><path d="M0 759.5h24v24H0z" fill="none"/><path d="M50.59 16.34l4.58-4.59-4.58-4.59L52 5.75l6 6-6 6z"/><path d="M42-.25h24v24H42z" fill="none"/><path fill="#231F20" d="M67 946l-5-5-5 5z"/><path d="M0 113h24v24H0z" fill="none"/><path d="M19 116h-4.18c-.42-1.16-1.52-2-2.82-2s-2.4.84-2.82 2H5c-1.1 0-2 .9-2 2v14c0 1.1.9 2 2 2h14c1.1 0 2-.9 2-2v-14c0-1.1-.9-2-2-2zm-7 0c.55 0 1 .45 1 1s-.45 1-1 1-1-.45-1-1 .45-1 1-1zm2 14H7v-2h7v2zm3-4H7v-2h10v2zm0-4H7v-2h10v2z"/><path d="M84 896h24v24H84v-24z" fill="none"/><path d="M94 885h-4.185c-.41-1.16-1.51-2-2.815-2s-2.405.84-2.815 2H80a2 2 0 0 0-2 2v14a2 2 0 0 0 2 2h14a2 2 0 0 0 2-2v-14a2 2 0 0 0-2-2zm-7 0a1 1 0 1 1 0 2 1 1 0 0 1 0-2zm2 14h-7v-2h7v2zm3-4H82v-2h10v2zm0-4H82v-2h10v2z" fill="#fff"/><path fill="none" d="M-568-580H832v3600H-568z"/><path d="M66.5 1146v11.5c0 2.2-1.8 4-4 4s-4-1.8-4-4V1145c0-1.4 1.1-2.5 2.5-2.5s2.5 1.1 2.5 2.5v10.5c0 .6-.4 1-1 1s-1-.4-1-1v-9.5H60v9.5c0 1.4 1.1 2.5 2.5 2.5s2.5-1.1 2.5-2.5V1145c0-2.2-1.8-4-4-4s-4 1.8-4 4v12.5c0 3 2.5 5.5 5.5 5.5s5.5-2.5 5.5-5.5V1146h-1.5z"/><path fill="none" d="M50 1140h24v24H50z"/><g transform="translate(0 1190)"><symbol id="b" viewBox="0 -24 24 24"><path fill="none" d="M0 0v-24h24V0z"/><path d="M20-11H7.828l5.586 5.586L12-4l-8-8 8-8 1.414 1.414L7.828-13H20v2z"/></symbol><use xlink:href="#b" transform="scale(1 -1)" height="24" width="24" y="-24" overflow="visible"/></g><g transform="translate(0 447)"><title>Icon</title><g sketch:type="MSArtboardGroup" xmlns:sketch="http://www.bohemiancoding.com/sketch/ns" fill-rule="evenodd" fill="none"><path d="M-7 11h24v24H-7z" sketch:type="MSShapeGroup"/><path d="M7.8 11l5.6-5.6L12 4l-8 8 8 8 1.4-1.4L7.8 13H20v-2H7.8z" fill="#fff"/></g></g><path d="M67 747h-5v5h5v-5zm-1-11v2h-8v-2h-2v2h-1c-1.11 0-1.99.9-1.99 2L53 754a2 2 0 0 0 2 2h14c1.1 0 2-.9 2-2v-14c0-1.1-.9-2-2-2h-1v-2h-2zm3 18H55v-11h14v11z"/><path d="M50 735h24v24H50z" fill="none"/><path fill="none" d="M-543-608H857v3600H-543z"/><path d="M94 861v14H80v-14h14m0-2H80c-1.1 0-2 .9-2 2v14c0 1.1.9 2 2 2h14c1.1 0 2-.9 2-2v-14c0-1.1-.9-2-2-2z"/><path fill="none" d="M75 856h24v24H75z"/><path fill="none" d="M-618-188H782v3600H-618z"/><path fill="none" d="M0 892h24v24H0z"/><path d="M19 895H5c-1.1 0-2 .9-2 2v14c0 1.1.9 2 2 2h14c1.1 0 2-.9 2-2v-14c0-1.1-.9-2-2-2zm-9 14l-5-5 1.4-1.4 3.6 3.6 7.6-7.6L19 900l-9 9z"/><path fill="#231F20" d="M86.858 776.351l6-6-1.5-1.5-4.5 4.5-4.5-4.5-1.5 1.5z"/><path fill="#fff" d="M11.858 225.351l6-6-1.5-1.5-4.5 4.5-4.5-4.5-1.5 1.5z"/><g transform="translate(0 1140)"><symbol id="c" viewBox="0 -24 24 24"><path fill="none" d="M24-24H0V0h24z"/><path fill="none" d="M24-24V0H0v-24z"/><path fill="none" d="M24 0v-24H0V0z"/><path fill="#231F20" d="M12-8l6-6-1.5-1.5L12-11l-4.5-4.5L6-14z"/><path fill="none" d="M24 0v-24H0V0z"/></symbol><use xlink:href="#c" transform="scale(1 -1)" height="24" width="24" y="-24" overflow="visible"/></g><path fill="#231F20" d="M19.064 1050.429l-1.414-1.414-5.586 5.586-5.585-5.586-1.415 1.414 5.586 5.586-5.586 5.587 1.415 1.414 5.585-5.586 5.586 5.586 1.414-1.414-5.585-5.587z"/><path fill="#fff" d="M44.064 937.429l-1.414-1.414-5.586 5.586-5.585-5.586-1.415 1.414 5.586 5.586-5.586 5.587 1.415 1.414 5.585-5.586 5.586 5.586 1.414-1.414-5.585-5.587z"/><path fill="none" d="M-593-704H807v3600H-593z"/><path d="M47 764c0-1.1-.9-2-2-2H29c-1.1 0-2 .9-2 2v12c0 1.1.9 2 2 2h14l4 4v-18zm-4 10H31v-2h12v2zm0-3H31v-2h12v2zm0-3H31v-2h12v2z"/><path fill="none" d="M25 760h24v24H25z"/><path d="M71.99 860c0-1.1-.89-2-1.99-2H54c-1.1 0-2 .9-2 2v12c0 1.1.9 2 2 2h14l4 4-.01-18zM68 870H56v-2h12v2zm0-3H56v-2h12v2zm0-3H56v-2h12v2z" fill="#fff"/><path d="M50 856h24v24H50z" fill="none"/><g fill="#231F20"><path d="M67.863 228.928H56.27l3.306-5.791h11.462zM65.18 213.147l6.07 9.017h-6.684l-6.069-9.018zM61.092 218.906l-5.537 9.932-3.305-6.152 5.072-9.614z"/></g><g transform="translate(25 906)"><symbol id="d" viewBox="0 -24 24 24"><path fill="none" d="M24-24H0V0h24z"/><path d="M12-8a2 2 0 1 1-.001 4.001A2 2 0 0 1 12-8zm0-2a2 2 0 1 1 .001-4.001A2 2 0 0 1 12-10zm0-6a2 2 0 1 1 .001-4.001A2 2 0 0 1 12-16z"/></symbol><use xlink:href="#d" transform="scale(1 -1)" height="24" width="24" y="-24" overflow="visible"/></g><path fill="none" d="M49 137H25v-24h24z"/><path d="M37 121a2 2 0 1 0-.001-4.001A2 2 0 0 0 37 121zm0 2a2 2 0 1 0 .001 4.001A2 2 0 0 0 37 123zm0 6a2 2 0 1 0 .001 4.001A2 2 0 0 0 37 129z" fill="#fff"/><path d="M87 4H71c-1.104 0-1.99.896-1.99 2L69 18a2 2 0 0 0 2 2h16a2 2 0 0 0 2-2V6a2 2 0 0 0-2-2zm0 4l-8 5-8-5V6l8 5 8-5v2z"/><path fill="none" d="M91-24H67V0h24z"/><g transform="translate(75 906)"><symbol id="e" viewBox="-12 -12 24 24"><path d="M8 8H-8a1.992 1.992 0 0 1-1.99-2L-10-6a2 2 0 0 1 2-2H8a2 2 0 0 1 2 2V6a2 2 0 0 1-2 2zm0-4L0-1l-8 5v2l8-5 8 5V4z" fill="#fff"/><path fill="none" d="M12-12h-24v24h24z"/></symbol><use xlink:href="#e" transform="matrix(1 0 0 -1 12 12)" height="24" width="24" y="-12" x="-12" overflow="visible"/></g><path d="M25 614h18v18H25z" fill="none"/><path d="M34 615.03c-4.42 0-8 3.58-8 8s3.58 8 8 8 8-3.58 8-8-3.58-8-8-8zM35 627h-2v-2h2v2zm0-3h-2v-5h2v5z" fill="#fff"/><path d="M59 984.75a1.25 1.25 0 1 0 0 2.5 1.25 1.25 0 0 0 0-2.5zm6 0a1.25 1.25 0 1 0 0 2.5 1.25 1.25 0 0 0 0-2.5zM62 975c-5.52 0-10 4.48-10 10s4.48 10 10 10 10-4.48 10-10-4.48-10-10-10zm0 18c-4.41 0-8-3.59-8-8 0-.29.02-.58.05-.86 2.36-1.05 4.23-2.98 5.21-5.37a9.974 9.974 0 0 0 10.41 3.97c.21.71.33 1.47.33 2.26 0 4.41-3.59 8-8 8z"/><path d="M50 973h24v24H50z" fill="none"/><path d="M16 40a1 1 0 0 1-1 1H1a1 1 0 0 1-1-1V26a1 1 0 0 1 1-1h14a1 1 0 0 1 1 1v14z" fill="#4285F4"/><path fill="#fff" d="M3 31h10v1H3zM3 29h10v1H3zM3 33h10v1H3zM3 35h6v1H3z"/><path fill="none" d="M0 25h16v16H0z"/><switch transform="translate(25)"><g><path d="M16 15a1 1 0 0 1-1 1H1a1 1 0 0 1-1-1V1a1 1 0 0 1 1-1h14a1 1 0 0 1 1 1v14z" fill="#DB4437"/><path fill="#fff" d="M8 8h5v5H8z"/><g fill="#fff"><path d="M8 8v.929A3.24 3.24 0 0 0 8.93 8H8z"/><path d="M7 8V7h2.359c.061-.248.103-.502.103-.769a3.232 3.232 0 0 0-6.462 0 3.23 3.23 0 0 0 3.23 3.23c.267 0 .521-.041.77-.103V8z"/></g><path fill="none" d="M0 0h16v16H0z"/></g></switch><switch transform="translate(50 956)"><g><path d="M16 15a1 1 0 0 1-1 1H1a1 1 0 0 1-1-1V1a1 1 0 0 1 1-1h14a1 1 0 0 1 1 1v14z" fill="#0F9D58"/><path d="M12 3H3v10h10V3h-1zM4 4h2v2H4V4zm0 3h2v2H4V7zm0 5v-2h2v2H4zm8 0H7v-2h5v2zm0-3H7V7h5v2zm0-3H7V4h5v2z" fill="#fff"/><path fill="none" d="M0 0h16v16H0z"/></g></switch><switch transform="translate(0 1027)"><g><path d="M16 13a3 3 0 0 1-3 3H3a3 3 0 0 1-3-3V3a3 3 0 0 1 3-3h10a3 3 0 0 1 3 3v10z" fill="#F4B400"/><path fill="#fff" d="M3 4h10v7H3z"/><path fill="none" d="M0 0h16v16H0z"/></g></switch><path d="M77.5 1035.3v-.6c0-.5.7-1.7 1.2-1.7h3.6c-.3-.7-1.1-1-1.8-1H79c-1.4 0-2.5 1.7-2.5 3s1.2 3 2.5 3h1.4c.7 0 1.5-.3 1.8-1h-3.5c-.5 0-1.2-1.2-1.2-1.7zM87.3 1037h-3.6c.3.7 1.1 1 1.8 1H87c1.4 0 2.5-1.7 2.5-3s-1.2-3-2.5-3h-1.4c-.7 0-1.5.3-1.8 1h3.6c.4 0 1.2 1.2 1.2 1.8v.6c0 .5-.8 1.6-1.3 1.6z"/><path d="M80 1035c0 .3.2.5.6.5h4.8c.3 0 .6-.2.6-.5s-.2-.5-.6-.5h-4.8c-.4 0-.6.2-.6.5z"/><g transform="translate(75 1165)"><symbol id="f" viewBox="0 -24 24 24"><path d="M20.002-4.4C19.4-4.203 15.701-4 12-4c-3.699 0-7.398-.188-8-.384C2.436-4.9 2-8.404 2-12s.436-7.1 2-7.616c.602-.197 4.301-.384 8-.384 3.701 0 7.4.187 8.002.384 1.562.516 1.988 4.02 1.988 7.616s-.426 7.084-1.988 7.6zM10-16v8l5.5-4-5.5-4z" fill="#333"/><path fill="none" d="M0 0h24v-24H0z"/></symbol><use xlink:href="#f" transform="matrix(.83333 0 0 -.83333 0 -3.333)" height="24" width="24" y="-24" overflow="visible"/></g><path d="M85 1020h4v-2h-4v2zm-7-12v2h18v-2H78zm3 7h12v-2H81v2z" fill="#fff"/><path d="M75 1002h24v24H75z" fill="none"/><path d="M35 1048h-6c-1.104 0-1.99.896-1.99 2l-.01 12a2 2 0 0 0 2 2h16a2 2 0 0 0 2-2v-10a2 2 0 0 0-2-2h-8l-2-2z" fill="#010101"/><path d="M60 780v-6h4v6h5v-8h3l-10-9-10 9h3v8zM3.9 12c0-1.71 1.39-3.1 3.1-3.1h4V7H7c-2.76 0-5 2.24-5 5s2.24 5 5 5h4v-1.9H7c-1.71 0-3.1-1.39-3.1-3.1zM8 13h8v-2H8v2zm9-6h-4v1.9h4c1.71 0 3.1 1.39 3.1 3.1s-1.39 3.1-3.1 3.1h-4V17h4c2.76 0 5-2.24 5-5s-2.24-5-5-5zM14 742l-5 5 5 5v-10z"/><path d="M0 735h24v24H0v-24z" fill="none"/><path d="M60 1061l5-5-5-5v10z"/><path d="M50 1044h24v24H50v-24z" fill="none"/><path d="M71 657.5h20v-3H71v3zm0-5h20v-3H71v3zm0-8v3h20v-3H71z" fill="#231F20"/><g transform="translate(25 1159)"><title>Slice 1</title><g sketch:type="MSShapeGroup" xmlns:sketch="http://www.bohemiancoding.com/sketch/ns" fill-rule="evenodd" fill="none"><path d="M-684-2164H716v3600H-684z"/><path d="M0 0h24v24H0z"/><path d="M3 18h18v-2H3v2zm0-5h18v-2H3v2zm0-7v2h18V6H3z" fill="#fff"/></g></g><path d="M75 931h24v24H75z" fill="none"/><path d="M94 950H80v-14h7v-2h-7a2 2 0 0 0-2 2v14a2 2 0 0 0 2 2h14c1.1 0 2-.9 2-2v-7h-2v7zm-5-16v2h3.59l-9.83 9.83 1.41 1.41 9.83-9.83V941h2v-7h-7z"/><path d="M104.98 526.297c-.017 0-.017-54.297-.017-54.297H.003v70h89.441s16.139-15.703 15.539-15.703z" fill="#E5E5E5" opacity=".5"/><path fill="#3E86FF" d="M89.042 526.018V542L105 526.018z"/><path fill="#bbb" d="M73.084 542h15.958v-15.982z" opacity=".702"/><g><path d="M104.98 359.297c-.017 0-.017-54.297-.017-54.297H.003v70h89.441s16.139-15.703 15.539-15.703z" fill="#E5E5E5" opacity=".5"/><path fill="#DB4437" d="M89.042 359.018V375L105 359.018z"/><path fill="#bbb" d="M73.084 375h15.958v-15.982z" opacity=".702"/></g><g transform="translate(0 138)"><title>overlay_formsspreadsheets</title><g sketch:type="MSLayerGroup" xmlns:sketch="http://www.bohemiancoding.com/sketch/ns" fill-rule="evenodd" fill="none"><path d="M104.98 54.297c-.01 0-.01-54.297-.01-54.297H0v70h89.441s16.139-15.703 15.539-15.703z" opacity=".5" sketch:type="MSShapeGroup" fill="#E5E5E5"/><path d="M89.042 54.018V70L105 54.018H89.042z" sketch:type="MSShapeGroup" fill="#673AB7"/><path d="M73.084 70h15.958V54.018L73.084 70z" sketch:type="MSShapeGroup" fill="#bbb"/></g></g><g><path d="M104.98 288.297c-.017 0-.017-54.297-.017-54.297H.003v70h89.441s16.139-15.703 15.539-15.703z" fill="#E5E5E5" opacity=".5"/><path fill="#F4B400" d="M89.042 288.018V304L105 288.018z"/><path fill="#bbb" d="M73.084 304h15.958v-15.982z" opacity=".702"/></g><g><path d="M104.98 597.297c-.017 0-.017-54.297-.017-54.297H.003v70h89.441s16.139-15.703 15.539-15.703z" fill="#E5E5E5" opacity=".5"/><path fill="#3F51B5" d="M89.042 597.018V613L105 597.018z"/><path fill="#bbb" d="M73.084 613h15.958v-15.982z" opacity=".702"/></g><g><path d="M104.98 1123.297c-.017 0-.017-54.297-.017-54.297H.003v70h89.441s16.139-15.703 15.539-15.703z" fill="#E5E5E5" opacity=".5"/><path fill="#0F9D58" d="M89.042 1123.018V1139L105 1123.018z"/><path fill="#bbb" d="M73.084 1139h15.958v-15.982z" opacity=".702"/></g><g transform="translate(0 785)"><path d="M104.97 0H0v70h105" opacity=".2"/><circle opacity=".5" r="17.913" cx="52.5" cy="35"/><path fill="#fff" d="M48.021 27.796v14.408l11.291-7.011z"/></g><g><path d="M0 977h24v24H0z" fill="none"/><path d="M16 988c1.66 0 2.99-1.34 2.99-3s-1.33-3-2.99-3c-1.66 0-3 1.34-3 3s1.34 3 3 3zm-8 0c1.66 0 2.99-1.34 2.99-3s-1.33-3-2.99-3c-1.66 0-3 1.34-3 3s1.34 3 3 3zm0 2c-2.33 0-7 1.17-7 3.5v2.5h14v-2.5c0-2.33-4.67-3.5-7-3.5zm8 0c-.29 0-.62.02-.97.05 1.16.84 1.97 1.97 1.97 3.45v2.5h6v-2.5c0-2.33-4.67-3.5-7-3.5z" fill="#fff"/></g><g><path fill="none" d="M-593-2137H807v3600H-593z"/><path d="M45 737H29c-1.1 0-2 .9-2 2v18l4-4h14c1.1 0 2-.9 2-2v-12c0-1.1-.9-2-2-2z"/><path fill="none" d="M25 735h24v24H25z"/></g><g><path d="M70 115H54a2 2 0 0 0-2 2v18l4-4h14a2 2 0 0 0 2-2v-12a2 2 0 0 0-2-2z" fill="#fff"/><path d="M62 125h24v24H62v-24z" fill="none"/></g><g><path d="M10 956c-5.522 0-10 4.477-10 10 0 5.522 4.477 10 10 10s10-4.478 10-10c0-5.524-4.477-10-10-10zm1.123 16.405h-2.35v-2.189h2.35v2.189zm2.76-8.211a2.742 2.742 0 0 1-.351.771 3.094 3.094 0 0 1-.5.578c-.188.17-.375.336-.561.5-.224.188-.429.367-.613.543a3.073 3.073 0 0 0-.492.587 2.625 2.625 0 0 0-.323.762 4.316 4.316 0 0 0-.113 1.068H9.037c0-.515.024-.947.077-1.306.054-.354.14-.668.254-.938.117-.27.261-.505.431-.71.17-.203.371-.405.604-.604a22.6 22.6 0 0 1 .535-.455c.168-.142.319-.295.455-.465.135-.17.237-.359.313-.569.076-.211.115-.461.115-.754 0-.351-.062-.65-.186-.902a1.859 1.859 0 0 0-.445-.605 1.777 1.777 0 0 0-.562-.332 1.593 1.593 0 0 0-.524-.105c-.726 0-1.258.236-1.604.71-.344.475-.518 1.107-.518 1.902H5.986c0-.643.098-1.227.291-1.752.191-.526.473-.977.84-1.35.369-.375.812-.664 1.332-.868s1.102-.307 1.744-.307c.537 0 1.037.079 1.498.237.463.157.865.385 1.211.683.344.298.615.669.814 1.113s.297.946.297 1.507c.001.412-.042.764-.13 1.061z"/></g><g><path d="M33.25 646.5h1.5V645h-1.5v1.5zm.75-12c-4.14 0-7.5 3.36-7.5 7.5s3.36 7.5 7.5 7.5 7.5-3.36 7.5-7.5-3.36-7.5-7.5-7.5zm0 13.5c-3.308 0-6-2.692-6-6s2.692-6 6-6 6 2.692 6 6-2.692 6-6 6zm0-10.5a3 3 0 0 0-3 3h1.5c0-.825.675-1.5 1.5-1.5s1.5.675 1.5 1.5c0 1.5-2.25 1.313-2.25 3.75h1.5c0-1.688 2.25-1.875 2.25-3.75a3 3 0 0 0-3-3z"/></g><g><path fill="none" d="M-574-2130H826v3600H-574z"/><path fill="none" d="M44 614h24v24H44z"/><path d="M56 616c-5.5 0-10 4.5-10 10s4.5 10 10 10 10-4.5 10-10-4.5-10-10-10zm1 17h-2v-2h2v2zm2.1-7.7l-.9.9c-.8.7-1.2 1.3-1.2 2.8h-2v-.5c0-1.1.4-2.1 1.2-2.8l1.2-1.3c.4-.3.6-.8.6-1.4 0-1.1-.9-2-2-2s-2 .9-2 2h-2c0-2.2 1.8-4 4-4s4 1.8 4 4c0 .9-.4 1.7-.9 2.3z"/></g><g><path d="M50 1190h24v24H50z" fill="none"/><path d="M69 1192H55a2 2 0 0 0-2 2v14a2 2 0 0 0 2 2h4l3 3 3-3h4a2 2 0 0 0 2-2v-14a2 2 0 0 0-2-2zm-6 16h-2v-2h2v2zm2.065-7.745l-.895.92c-.72.72-1.17 1.325-1.17 2.825h-2v-.5c0-1.105.45-2.105 1.17-2.83l1.245-1.26A2 2 0 1 0 60 1198h-2c0-2.21 1.79-4 4-4s4 1.79 4 4c0 .88-.355 1.675-.935 2.255z"/></g><g><path d="M75 1190h24v24H75z" fill="none"/><path d="M94 1192H80a2 2 0 0 0-2 2v14a2 2 0 0 0 2 2h4l3 3 3-3h4a2 2 0 0 0 2-2v-14a2 2 0 0 0-2-2zm-6 16h-2v-2h2v2zm2.065-7.745l-.895.92c-.72.72-1.17 1.325-1.17 2.825h-2v-.5c0-1.105.45-2.105 1.17-2.83l1.245-1.26A2 2 0 1 0 85 1198h-2c0-2.21 1.79-4 4-4s4 1.79 4 4c0 .88-.355 1.675-.935 2.255z" fill="#fff"/></g><g><path fill="none" d="M-568 562H832v3600H-568z"/><path d="M60 1011v-4l-7 7 7 7v-4.1c5 0 8.5 1.6 11 5.1-1-5-4-10-11-11z"/><path fill="none" d="M50 1002h24v24H50z"/></g><g><path d="M25 1190h24v24H25z" fill="none"/><path d="M32 1197h10v3l4-4-4-4v3H30v6h2v-4zm10 10H32v-3l-4 4 4 4v-3h12v-6h-2v4z" fill="#fff"/></g><g transform="translate(75 1140)"><symbol id="g" viewBox="0 -24 24 24"><path d="M19.429-12.976c.042.32.07.644.07.976s-.029.655-.07.976l2.113 1.654a.5.5 0 0 1 .118.638l-2 3.464a.5.5 0 0 1-.612.217l-2.49-1.003a7.473 7.473 0 0 1-1.69.983l-.375 2.649A.499.499 0 0 1 14-2h-4a.5.5 0 0 1-.494-.421L9.131-5.07a7.52 7.52 0 0 1-1.691-.984L4.952-5.051a.5.5 0 0 1-.612-.217l-2-3.464a.5.5 0 0 1 .118-.638l2.112-1.654c-.042-.32-.07-.644-.07-.976s.029-.656.071-.976l-2.112-1.653a.5.5 0 0 1-.118-.639l2-3.464a.5.5 0 0 1 .612-.217l2.489 1.003a7.473 7.473 0 0 1 1.69-.983l.375-2.649A.499.499 0 0 1 10-22h4a.5.5 0 0 1 .494.421l.375 2.649a7.448 7.448 0 0 1 1.689.984l2.49-1.004a.501.501 0 0 1 .612.217l2 3.464a.5.5 0 0 1-.118.639l-2.113 1.654zM12-16a4 4 0 1 0 0 8 4 4 0 0 0 0-8z"/><path fill="none" d="M24-24H0V0h24z"/></symbol><use xlink:href="#g" transform="scale(1 -1)" height="24" width="24" y="-24" overflow="visible"/></g><g><path d="M25 1002h24v24H25z" fill="none"/><path d="M44.43 1014.98c.04-.32.07-.64.07-.98s-.03-.66-.07-.98l2.11-1.65c.19-.15.24-.42.12-.64l-2-3.46c-.12-.22-.39-.3-.61-.22l-2.49 1c-.52-.4-1.08-.73-1.69-.98l-.38-2.65a.488.488 0 0 0-.49-.42h-4c-.25 0-.46.18-.49.42l-.38 2.65c-.61.25-1.17.59-1.69.98l-2.49-1c-.23-.09-.49 0-.61.22l-2 3.46c-.13.22-.07.49.12.64l2.11 1.65c-.04.32-.07.65-.07.98s.03.66.07.98l-2.11 1.65c-.19.15-.24.42-.12.64l2 3.46c.12.22.39.3.61.22l2.49-1c.52.4 1.08.73 1.69.98l.38 2.65c.03.24.24.42.49.42h4c.25 0 .46-.18.49-.42l.38-2.65c.61-.25 1.17-.59 1.69-.98l2.49 1c.23.09.49 0 .61-.22l2-3.46c.12-.22.07-.49-.12-.64l-2.11-1.65zM37 1017.5c-1.93 0-3.5-1.57-3.5-3.5s1.57-3.5 3.5-3.5 3.5 1.57 3.5 3.5-1.57 3.5-3.5 3.5z" fill="#fff"/></g><g transform="translate(0 856)"><use xlink:href="#h" transform="matrix(1 0 0 -.95238 12 6.952)" height="-32766" width="-32766" y="16383" x="16383" overflow="visible" fill="#fff"/><path fill="#fff" d="M1.1 4.476L0 5.524 4.7 10 14 1.048 12.9 0 4.7 7.905z"/></g><g><path fill="#231f20" d="M97.99 619L94 622.99l1.01 1.01 3.99-3.99 3.99 3.99 1.01-1.01-3.99-3.99 3.99-3.99-1.01-1.01-3.99 3.99-3.99-3.99-1.01 1.01z"/></g><g transform="translate(0 614)"><circle cy="12" cx="12" r="12" fill="#0C9D58"/><path d="M9.75 15.128L6.622 12l-1.061 1.061L9.75 17.25l9-9-1.061-1.061-7.939 7.939z" fill="#fff"/></g><g><path d="M12 867c-6.624 0-12 5.37-12 12s5.376 12 12 12 12-5.37 12-12-5.376-12-12-12z" fill="#DB4436"/><path fill="#fff" d="M10.8 882.6h2.4v2.4h-2.4zM10.8 873h2.4v7.2h-2.4z"/></g><g transform="translate(0 639)"><circle cy="12" cx="12" r="12" fill="#0C9D58"/><path d="M3.517 11.997L7.23 15.71l3.712-3.712H7.521c0-1.151.422-2.304 1.299-3.182 1.758-1.758 4.606-1.758 6.364 0s1.758 4.606 0 6.364a4.493 4.493 0 0 1-5.118.875l-1.103 1.103a5.987 5.987 0 0 0 7.281-.917c2.344-2.344 2.339-6.136-.005-8.48s-6.136-2.349-8.48-.005a5.96 5.96 0 0 0-1.75 4.243H3.517z" fill="#fff"/></g><g><path fill-opacity=".09" d="M0 664.001h105v70.001H0z"/><path fill="#fff" d="M38.964 718.183l8.166-14.309h28.326l-7.857 14.31zM75.971 701.472H59.466l-15.012-22.287h16.522zM37.196 717.96l-8.166-15.2 12.524-23.763 9.317 14.429z"/></g><g><path fill-opacity=".09" d="M0 42h105v70H0z"/><path d="M52.5 57c-11 0-20 9-20 20s9 20 20 20 20-9 20-20-9-20-20-20zm-2 35.9c-7.9-1-14-7.7-14-15.9 0-1.2.2-2.4.4-3.6l9.6 9.6v2c0 2.2 1.8 4 4 4v3.9zm13.8-5.1c-.5-1.6-2-2.8-3.8-2.8h-2v-6c0-1.1-.9-2-2-2h-12v-4h4c1.1 0 2-.9 2-2v-4h4c2.2 0 4-1.8 4-4v-.8c5.9 2.4 10 8.1 10 14.8 0 4.2-1.6 7.9-4.2 10.8z" fill="#fff"/></g><g><path fill-opacity=".09" d="M0 376h105v70H0z"/><path d="M67 397.2c-1.1-.4-7.8-.7-14.5-.7s-13.4.4-14.5.7c-2.8.9-3.6 7.2-3.6 13.8s.8 12.9 3.6 13.8c1.1.4 7.8.7 14.5.7s13.4-.4 14.5-.7c2.8-.9 3.6-7.2 3.6-13.8s-.8-12.9-3.6-13.8zm-18.1 22v-16.4l10.9 8.2-10.9 8.2z" fill="#fff"/></g><g><path d="M50 1165h24v24H50z" fill="none"/><path d="M69 1168h-1v-2h-2v2h-8v-2h-2v2h-1c-1.11 0-1.99.9-1.99 2l-.01 14a2 2 0 0 0 2 2h14c1.1 0 2-.9 2-2v-14c0-1.1-.9-2-2-2zm0 16H55v-11h14v11zm-12-9h5v5h-5z" fill="#fff"/></g><g><path d="M7.41 1183.59l1.42 1.41 3.17-3.17 3.17 3.17 1.41-1.41L12 1179l-4.59 4.59zm9.18-13.18l-1.42-1.41-3.17 3.17-3.17-3.17-1.42 1.41L12 1175l4.59-4.59z"/></g><g><path d="M37 861.83l3.17 3.17 1.41-1.41L37 859l-4.59 4.59 1.42 1.41 3.17-3.17zm0 12.34L33.83 871l-1.41 1.41L37 877l4.59-4.59-1.42-1.41-3.17 3.17z"/></g><g transform="translate(75 735)"><symbol id="i" viewBox="0 -24 24 24"><path d="M6-19a2 2 0 0 1 2-2h8a2 2 0 0 1 2 2v12H6v-12zM18-4h-2.5l-1 1h-5l-1-1H6a1 1 0 0 1-1-1v-1h14v1a1 1 0 0 1-1 1z"/><path fill="none" d="M24-24H0V0h24z"/></symbol><use xlink:href="#i" transform="scale(1 -1)" height="24" width="24" y="-24" overflow="visible"/></g><g><path d="M84.625 987.97c0-1.05-.583-1.925-1.458-2.333v1.285l1.458 1.458v-.41zm1.458 0c0 .525-.116 1.05-.291 1.517l.875.876c.408-.7.583-1.575.583-2.45a5.259 5.259 0 0 0-4.083-5.133v1.225c1.691.583 2.916 2.099 2.916 3.966zm-8.575-5.25l-.758.758 2.742 2.743H76.75v3.5h2.333L82 992.638v-3.909l2.508 2.509a4.859 4.859 0 0 1-1.341.7v1.225a4.969 4.969 0 0 0 2.158-1.05l1.167 1.167.758-.759-5.25-5.25-4.492-4.55zm4.492.583l-1.225 1.225L82 985.754v-2.45z" fill="#da4336"/><path fill="none" d="M75 981h14v14H75z"/></g><g><path d="M25 1140h18v18H25z" fill="none"/><path d="M34 1143.375c-3.75 0-6.952 2.333-8.25 5.625 1.298 3.292 4.5 5.625 8.25 5.625 3.754 0 6.952-2.333 8.25-5.625-1.298-3.292-4.496-5.625-8.25-5.625zm0 9.375c-2.07 0-3.75-1.68-3.75-3.75s1.68-3.75 3.75-3.75 3.75 1.68 3.75 3.75-1.68 3.75-3.75 3.75zm0-6a2.252 2.252 0 0 0-2.25 2.25 2.252 2.252 0 0 0 2.25 2.25 2.252 2.252 0 0 0 2.25-2.25 2.252 2.252 0 0 0-2.25-2.25z"/></g><g><path d="M45.007 228.6c-.602.197-4.301.4-8.002.4-3.699 0-7.398-.188-8-.384-1.564-.516-2-4.02-2-7.616s.436-7.1 2-7.616c.602-.197 4.301-.384 8-.384 3.701 0 7.4.187 8.002.384 1.562.516 1.988 4.02 1.988 7.616s-.426 7.084-1.988 7.6zM35.005 217v8l5.5-4-5.5-4z"/><path fill="none" d="M49 185H25v24h24z"/></g></svg>